<mxfile host="65bd71144e" scale="4" border="0">
    <diagram id="4tqCra_2czHzB7G-yJ7Y" name="Page-1">
        <mxGraphModel dx="1085" dy="1082" grid="1" gridSize="10" guides="1" tooltips="1" connect="1" arrows="1" fold="1" page="1" pageScale="1" pageWidth="1169" pageHeight="827" math="0" shadow="0">
            <root>
                <mxCell id="0"/>
                <mxCell id="1" parent="0"/>
                <mxCell id="2" value="" style="shape=image;imageAspect=0;aspect=fixed;verticalLabelPosition=bottom;verticalAlign=top;image=data:image/png,iVBORw0KGgoAAAANSUhEUgAAAtAAAALQCAYAAAC5V0ecAAAAOXRFWHRTb2Z0d2FyZQBNYXRwbG90bGliIHZlcnNpb24zLjMuMywgaHR0cHM6Ly9tYXRwbG90bGliLm9yZy/Il7ecAAAACXBIWXMAAAsTAAALEwEAmpwYAABP8ElEQVR4nO3de/w91aD/8fenonsoCpEROi6HRCSXXMpB437LcTsiRG7H5Rjqh+OgEcctQoQIR26hwYncbwnJPZcaktD9UKpvfT+/P/bsvvOdz9zWzJqZNTOv5+Pxeczee9asWXv2/uz93muvvWZldXVVAAAAAOrZZOgGAAAAAGNCgAYAAAAMEKABAAAAAwRoAAAAwAABGgAAADBAgAYAAAAMEKABAAAAAwRoAAAAwAABGgAAADBAgAYAAAAMEKABAAAAAwRoAAAAwAABGgAAADBAgAYAAAAMEKABAAAAAwRoAAAAwAABGgAAADBAgAYAAAAMEKABAAAAAwRoAAAAwAABGgAAADBAgAYAAAAMEKABAAAAAwRoAAAAwAABGgAAADBAgAYAAAAMEKABAAAAAwRoAAAAwAABGgAAADBAgAYAAAAMEKABAAAAAwRoAAAAwAABGgAAADBAgAYAAAAMEKABAAAAAwRoAAAAwAABGgAAADBAgAYAAAAMEKABAAAAAwRoAAAAwAABGgAAADBAgAYAAAAMEKABAAAAAwRoAAAAwAABGgAAADBAgAYAAAAMEKABAAAAAwRoAAAAwAABGgAAADBAgAYAAAAMEKABAAAAAwRoAAAAwAABGgAAADBAgAYAAAAMEKABAAAAAwRoAAAAwAABGgAAADBAgAYAAAAMEKABAAAAAwRoAAAAwAABGgAAADBAgAYAAAAMEKABAAAAAwRoAAAAwAABGgAAADBAgAYAAAAMEKABAAAAAwRoAAAAwAABGgAAADBAgAYAAAAMEKABAAAAAwRoAAAAwAABGgAAADBAgAYAAAAMEKABAAAAAwRoAAAAwAABGgAAADBAgAYAAAAMEKABAAAAAwRoAAAAwAABGgAAADBAgAYAAAAMEKABAAAAAwRoAAAAwAABGgAAADBAgAYAAAAMEKABAAAAAwRoAAAAwAABGgAAADBAgAYAAAAMEKABAAAAAwRoAAAAwAABGgAAADBAgAYAAAAMEKABAAAAAwRoAAAAwAABGgAAADBAgAYAAAAMEKABAAAAAwRoAAAAwAABGgAAADBAgAYAAAAMEKABAAAAAwRoAAAAwAABGgAAADBAgAYAAAAMEKABAAAAAwRoAAAAwAABGgAAADBAgAYAjIIXRPt4QfSYodsBAJsN3QAAAGr6erJcGbQVAGaPHmgAAADAAAEaAAAAMECABgAAAAwQoAEAAAADBGgAAADAAAEaAAAAMECABgAAAAwQoAEAAAADBGgAAADAAAEaAAAAMECABgAAAAwQoAEAAAADBGgAAADAAAEaAAAAMECABgAAAAwQoAEAAAADBGgAAADAAAEaAAAAMECABgAAAAwQoAEAAAADBGgAAADAAAEaAAAAMECABgAAAAwQoAEAAAADBGgAAADAAAEaAAAAMECABgAAAAwQoAEAAAADBGgAAADAAAEaAAAAMECABgAAAAwQoAEA1nhBtLkXRCtDtwMAukSABgBY4QXRtpIul/SqgZsCAJ0iQAMAbNk+WT5lyEYAQNcI0AAAAIABAjQAwDbGQAOYNAI0AMCW1aEbAAB9IEADAGyh5xnALBCgAQAAAAMEaACALQzhADALBGgAgG0M5QAwaQRoAIAt9EADmAUCNAAAAGCAAA0AAAAYIEADAAAABgjQAAAAgAECNADANmbhADBpBGgAgC3MwgFgFgjQAOAwL4ju4AXRjkO3oyZ6ngHMwmZDNwAAUOp0SRdK2mHohgAAFuiBBgD3bT90A2piCAeAWSBAAwAAAAYI0AAA2xgLDWDSCNAAAACAAQI0AAAAYIAADQCwhR8RApgFAjQAAABggHmgAQBGvCDaRdLvJd0/Dv0v5xSx9iNCL4g2k7RO0gts1YliXhB9W9IVcejfb+i2AC6jBxoAYOoeyfJpPexr62T56h72Benuku47dCMA1xGgAQC2MRYawKQRoAEATRUN1ehiHmjmlgbgDAI0AMBUUQ8zPc8AZoEADQBoil5hALNEgAYAuIxebQDOIUADAJrqI9zSyw3AOcwDDQBo6gBJjxu6ESa8ILqbpJtL+qqkAyWFcejTyw3ACAEaAGCqKnDa7DW2HW6/myxPlrSvpC9J+oHlfQCYOIZwAABsGVNP7rbJctNBWwFglAjQAABTffZAA4BzCNAAAFMEZACzRoAGANjWxVAOQjsAZxCgAQCmpjSEY0xtBeAIAjQAwJYuf0Q4ph8oApg4AjQAWOIF0Q28INpu6HbU5QXRzl4QbVGyflcviPJ6aDsLs14Qbe4F0U1yVnXVUzy6YO4F0U29ILr20O1I84JoEy+Ibj50O4C+EKABwJ6/Sjpr6EYY+KOk4/NWeEG0l6TfSXpWry2SjpV0thdE10qujy7gdskLoq0k/UHSe4duS0Yg6UwviG4zdEOAPhCgAcCu7YdugKGHFNy+W7K8e18NSTwsWS5P9MUY5Y1tmSz9QVux1r2T5S6DtgLoCQEaAJBnLj2/BHQAxgjQAIAyTQKmy6fy7rrevrga/F1tF2AVARoAkKcsYPYZPglkAJxDgAYA2DKmsDumtuZxtQfd1XYBVhGgAQBlxh40q4w18E39cQGcRoAGAORZBktXglpX7XDl/k0FxxOzsFl1EQBAF7wg2knSqZIeEIf+Lx1oz26SvixpL7UL0Dt6QbRzHPrnGOz7tpK+IGl5YpcjvSC6RNKrc8qeLekecej/oUHblmr1PHtBtIOkH0p6aBz6P2mxv7J9LI/7XePQ/3PNzVa9IDpE0v5x6Ls2pR0wefRAA8BwHi7pppJeMGwzrvFcLdrz6IpydcLn4wz3/SJtPIfw0yS9sKDsTST9m2H9TT1Q0s0kvbTDfTxfi+P+KINtViS9XdL+nbSoubEOiQGMEKABAGVMAtGUv7535b65HlBdOU5ApwjQADA8Qkf/6h5z16bsc/W54nqwB6wiQAPAcAYLHV4QlQWxlYLLQ+h6/wQ/AMYI0AAwnKHDaVbdMOlCu221oW49LtxnicAPOIEADQBYyguJTQObK4GziEtB1KW2AKiBAA0AwxlrcCpqd5vQ3EWdYzOn+wqMGvNAA0DCC6JrSXqipGPj0F9vsN0NJN2rxa5bBScviLaV9JA49D/Sph7lh9imbSv8cOAF0X6S4jj0f9uw7mvq94LoAZLOiEM/rtrAC6Idm+4HANLogQaADV4s6X2Snmy4XSTpk/abU9vRkj7sBdGdLNbZZXD8kqTfGG5TFOS/KKnuSWgiw33W2b9NhHVgJAjQALDBsofyeobb3bzlftsGp5sky60NtqmahcP14QTp9m1RWGpjuzbYj2vT2AFwAAEaAIbnSnBysQfUlWPTJRePO4ASBGgAGI5rwSkdVmu1rWQ+6TkEX6zF445ZIEADwHTYCi9TnbquDdfum2vtAWaFAA0A42e7J9vGGGjTNvUxjV2T48QYaDOufasCdIIADQBrjS3IDNnz3PcZAW1z4UyErgd7E2P73wEaIUADwAbXzI3vBdG1vCBq9BrpBdG1DTdpGzquldn/JjXaULXPZUBz9X1iEy+ITM9lYPq4dMILomuXjB2vy7Wg6mqgBzrh6gsjAAzhOclyVdKVkt7TsJ4rvCC6vp0mlUtO/rJX5ua3S7qiRbXpcPaYnPVdhKWqOrOB8ZWS1tWt3AuinSRt22C/VnlBtI0Wj82rGlbhalB1LdADnSJAA8BayzDw1BZ13MigbJtQlNer+qwW9dWxYnjZ1r7a2KXhdrYD63KO8abPLdeDqqsBH7CKAA0Aw+skFLUYJuBiCBq6TbYfo7z6XA/HdUzhPgCVCNAA0I06QaKL2TPSmr7G2whBQwfeuuqOBbdlWd+UPtxI7rYL6AQBGgDWGlMYqDolt4khZ+Hou/4xPcZprvbwutouoBMEaABYa6xhIBsKbYbrsv2gHY4nMDIEaADoRl8hvCx8mb7G25xazfUPIabtsz3X9tTGQPMhALNCgAaA4bUJTmWhtatANqagXKUq+HU1BhrAiBGgAaAbQwSlB3tB9MLUddPX+L7nRH60F0SHVOx7GdC3qqhrPy+I3myw++Xc2UOdifBGXhAFDbZbySzlBdH9igp7QbSNF0THekG0fYN9NTH2D1RALQRoAOiGSZCwFVxfLOm/LdbXRp02fFyLk75I7YPXCZJe0LKOPF0ey8Nb7CO9zckl5Z4p6cmSDm2wjyZceO4BnSNAA8Dw+phj2HT7siDkYkjauqN6bT82Lh47AIYI0AAwnK7DlOksHKsV66vq6WJmjzkMCZjDfQQmhQANAN0wCUWuBCib7XDlPrXl2o8Imx7XqTwegBMI0ACArKqQN6UwVjfQdnmfu/wmgiEjQAcI0AAwvK5CTpveSheCZR/6PpU3gAkgQAPA8FwJoU3GQNepqw1Xjo0tDOEAJmCzoRsAAGPkBdHekn4ch/4/Gmy7jaTbary9mzaD9tB2lfRd25Um8y7vEof+jyvK3U0Vc1wXGOtzB5gEeqABYK3SUOgF0U0lfUfSexrW/zFJp0jaru4GXhDdpWCV6UwbddfVDWiPqFmnq46rWc70vn1b0mk1yn1X0tMN65bM20PgBiwiQAOAuWXw3aOkTFnAuWuy3NxgnzsalO3TLgW32wp4Q4fypsHz1g3q6/K+Dn0cgUkhQAPAWl3/gM5mmOmiZ3FOs3D0zcZJbkzQ8wx0gAANAGv1NTPDsp42oarpMA1bCNP2mDyvCMbAgAjQAGDO1gwVYzzZilTvR4QEvHy2hnCYPh+6fv649PwEOkeABoD+ZcOGa/NAu7Q/glk7fJABOkCABoC1qkJHL0M4vCDiR2XucOV4udbzvERQx6wQoAFgLRuho04dUwgdRffTlcDZlquPkavtAmaBAA1gtLwgOtULos/m3H6uF0RHVWz7di+I/mKwr//1guhbTdpZw1O8IPrPDup14keEXhCd4wXRu7qqP7OvNzXcj5X9l/GC6D2S/tBi+7dI+nNytW67ah8PL4ieYdqmlKl8YAJqIUADGLM9JT0k5/YbSnpWxbaHyGxu5X+RdI+Cdaa9gXlh4xU1y43RjSU9s6KMrR7Vf7dUTxcOktnc31nPt9WQAl18iAMmiQANAGvVDa4rmeUQXArZXU3HNyRXh0rY+NBmk6vHCegEARoA+tdX2GgzR3Tbk8kQqABMFgEaAPrnam/rSsHltnVNoR5XHzNXcHwwKwRoAFjLtHd2KvM4L5ncH4KTPVM4lnzzgFkgQAOAuWzQyQs+fYWhLk7lPYUgl2Xr7JEoN8XnDrAGARoAhuNaT+9qweUyNod9uKzv4z+ENvdx6LYDvdps6AYAgIMeUbG+VljwguhGkp4o6Y1x6BsFDC+I7iTpDibb1Kz3hpKeLOnI1G1bxKF/eabomjDlBdGukvaX9Cfb7SphK7g2DXil2yWP023j0D+upMyDa+5/z5I6tqtox2GS3h6H/sU19gOgJXqgAWCtvWuWqxo+cbykIyTdrsH2P5T0fgttyPqwpNdL2iN1W925k7+uRfDetsb+XZtmrbB+L4i2aFHvDyV9qKLM5ySdWKOux5esO6Ji2/+S9JaS9YMdX2CKCNAA0I1VSctew01LyvRt2ab0N5BbJsuqEHRdg/1MLVANfX+2tlSmDMMwgJoI0ADQXFngKBsb7MIPDMusKv++raTW96WPaewIjguMgQZqIkADQHNtT0ZiI3R0MdOGSZ3p+zDWAFZn3wREANcgQAOAOdfG97Zl2rPcxf0ZyzFCPo4PZoUADQDtlQ13sKVJfV0NW7DV6zwGc+p5ntN9BVohQANAe2MMkW3aXGdbW2Gsj2M7xsfPVJ37ONYhOEDvmAcagNO8ILqxpAvi0L+iotx1JG0Sh/5F/bSslqJQsQwqOxjUtZUXRDtqMWPG2XHor8/UZdqm9HbX9YLoekV1eUG0g6R12jBbx2pmvReHfpzZLG8e6euoeEYSa5L7spqZE9nkWC/r2UHSzZOrO2fWXV/S5emycehfkFz2TPeVquemceif3XR7tOMF0XUlifm0UYUeaADO8oJoE0nnaDF3cZWLJV3YQRt2LVndtufyZZl9bVNS9qOS/iIplvTSmvXXbd9ztPGxywb/87U4eUree8Z9JJ3lBdGTauznguSvaxdKyn6QqjMPc9b52jC38p28INo8te48Sb/OlJUXRPtLOqvBvpb+kHxQGpup9OJfpLXPHWANAjQAly3flKvODNiaF0RFAWDngtulDUGz6uvruuFiy+oikhahtW9FcwzfPlneVdX3s0nvs0vBbPPM9RvllNkj5zZT12u4Xd1pFbvEUA7MAgEagMtcCk95VjLL7Lo+wsQQM2K4/riYmtr9GRLHErNAgAbgsiFO3FHUhrSu2lM3fNgut7RacLlOvW2DE8Frgy6eX13/D9HzjFkhQAPAQp8BzoWw2HUbphio+pp9pIsTu3T9eLvwnAZ6Q4AGgHJNw0zZqbxdYLsXOXsM+jgFty0uPj5VXG3zFD84AWsQoAG4zNUhHHXL9DHUo+kpucvaZtLu9LR4zCMMV4M9YBUBGgAWbJ/pz3VVbe97RocxHEuX2ujaEA4+AGFWOJEKAGd4QfQwSYdKultyopCV1Lq3Sro8Dv26cyCX7eembetIrHhB9D1J189Z973MPg+W9Hgtpj67TkF9t/GC6LuS7mapfR/ygujkOPTD1G3XTZZ3yCn/lJr1pjtfWgczL4g+peL5ofsIrR+QdECNcsZt8YLoJOPWSJ/wgui9kt4t6VRJL6q53bZeEJ0h6Ylx6J+a05YPSvpF5vlQyguid0i6OA79Q1O3vU3SPzL/iy59uDDmBdETJB00dDswHvRAA3DJ/0i6izbMt5sewvE8Sf9haT9PtVTPtSXtVbPsOyXdS9ItS8q8RNKukh5q0Iay4LKfpMMzt90qWR6qtZbB3iQM2eh57Hye7wqPtVhX9njcv0Edd5D0Nkk3Sy6/M6dM3mO0t6TdJL2uoN4nae3zocqzJb08c9tzVfy/ONae6OM0zPzqGCkCNAAXZcOBa/Mpu/b1eROujVd28Rg1MZX7AaAEARqAywgj3an6gWGTkDz1x2uo+9fnXORtTf05AEgiQANwm+tvxl2d0KSLNnS1z9Wc25ooCoSuPweybLa37286XPtWAnAWARqAS4rehF0bwtGVPgO5rVk4XDhuU2U6ReGQjwXPA8wKARqAy1x9U7bV6zoFtubqHsOx7OtMhF1w6SyKwOgRoAG4iDlr3baac7mrx8ylYN3mpDpNmJ7sxoVj5UIbgM4xDzSAwXlBdHtJW+WsavVm7AXRw+PQP6FGuZtIul/NOnds06YKNzEp7AXRgZJ2abivNsc2bwz0tbTxPNKPk/TGFvuwwguiG0m6U82ye0q6Kg79Hzfc186SHtRk2wp1H6ttkmVeuH6kxf1cwwuirbSYhnC5z+29IHpUHPqfNK0rp+7bSNo+Dv1vt60LsI0eaAAu+IkWJx7ZMrl+rWTZdnjAp70gul6Ncu+TdGzBumyoOKlkXZG65fJOblLmfZJeZbjNUpsx0GlnJMunSwpSt9/ZC6I7GrSnq28FviXpxJplT5V0Wot9/VHSPVps36WdOqr3zVrMobxPcv04LU4Es7OFun+hxeMHOIcADcAl/9dBnXW+abtvybps0Cw7EcocXVSybpuSdVldffW/q8W6hhqe0NeQoyb7WX5rkv0G6dot2wI4jQANwGV9BRbT2Q6G1scsHF3v38V9ucqF/wMAKQRoAC6zMcNDnW2bBui6gWNqP1okaPVjDM+bMbQRsI4ADWAMun6TNg3JpjNPjDFwms4Akcfkfo/hGLl0JkIAAyJAA3DRSmZpWzYAdt0DbdvQQzj65FI7XWpLF+hNBmoiQANwmQtzC081NNkaA23r+BDeivV1bKb6XAesYx5oANZ4QbSppE0lrYtD3+abfpu6NvWCaGXZnqSNRgHaC6L0a2X68mgCR3K/806A0qVNOyrbqZxjtbSSrO+782lFZs+1ysfWC6JrxaG/rm6FXhBtFof+Vdnb6rQhKXd10WtCsn59HPrrvSBa0WIGj1rPT9P7AdhCDzQAm66SdIWkl7esx+YQjj9LOip1/SqZzZ38YknpN+jNJV0nuTyaAK3F/U7PcVz1+l83YJeV+2rNOqSNT8IytKskfS3n9uXjfUpP7di/i0q9INpb0pVeEO1nsNk6L4i87G2S/Ip9bZGUe01Z3ZI+mlx+t6TLtXgdKeUF0W5a3I9/rSoL2EaABtCFp1qqx1ZAPbjFtvfPue0GyXJMAVoyP1GLC4Y6xvcqWbdnT21Ih1Ob3xjcO1lmA3TVPm7TYF/bJstnVJR7bLJ8ukHduyfLOmdZBKwiQAPoQtvQk92+dnhIvgJGt+Z6jKdyv5fv/SY/pnXZWNuNESNAA3BZkzdGTvLRrzkdg77va1fj1G3Mr950nzaZTicJWEOABtCFubyhjXke6Ko2uTIrhkvHbqgAnfcjwjaPzxABGpgUAjQAF7X5EaFLgasrc7iPKGdjGsL1NhoCzBEBGoDLmvSUuTiEY2o9fXMN8EPeb5vPoaIx0GPDEA4MhgANwCVjeyMc8xAOmJvK4ziVIRxjbz9GjBOpAFjDC6JnSfpLHPqfMtjmzqmru7RswuO8ILqTpGs12PY+eTd6QXSMpENybn9gg308JVler8G2rtiqZN2bJb2vZj0PLlvpBdHRtVuUr/EUhF4Q/YtB2bc23U+Hbp8sveQvrSw8VgXLawJ08n/7GEkvSxfwgmhV0um1WpnvUck8099Jru/gBdGt4tD/TTJTzusk/UapqfG8IHp3i/01krTl9X3vF+NHgAaQZ3niEZMet1NTly9ouN/lG/+RBbfX8aWC258q6ds5t3/BoO6lAxpsY1MfPaFlc3mb7N9kXt88z2+x7f8alH1ejTJ990DfpGSdrbZ8X4tvow/LWbd75rrJPt+YLNMfUD8t6Z+T/QU521TNFd2FbSS9ZID9YuQYwgFgDGx9VTuVr3yncj/GZipDOPL08Zzqelo+oDcEaACAqbkG+LkHNdcedxs/Ipz7Y4qGCNAAbLHx5sqb2TjwOA3PdpjNm2s6rwwAEaAB2NNl75RrPV9dc/3+zjVITeV+u/78ApxHgAbgEt7YF6YS1KZmyo/Lqqr//2z9f9o6jswDjcEQoAHYMoYhHEMFdN7gp2Fqj+NKweU65V3AB24MhmnsAFzDC6JNJN0zdf26krw49H9cY/P0m9kNMvVeR9LN8+rxgmgbwzbuHof+6Znbtq25+Q4m+7Joc8v1bZvMk41+3csLojOHbkQNdeeBTpfdVtKOFdtt7QXRno1blb//ziVzXf862e8+kn4Vh/5vy9riBdHmcehf0VMTMUL0QANIe46kr6eunyzptCYVeUG0R+rql0rq+XiN6tKB4Mc56z9Zs1lvrC7SiaOqi2ykKgDdWdIP61bmBdFuhvtHvvdpGnMGvyB1eRkgP1tjuw9r4/neXVEYyL0g2kLSDyR9StLnJX1OixO4VHmLlZZhsuiBBpB268x1k17O7JvYTqnLdynZ7m4G+yiyt4U6unRbw/K2e+hs97y79lV+n25TXcR52+Xcdvca2zU5M2iX6gzhWLb5blqcNKWuPaqLYM7ogQYwNMYxAvNi+wPYGMdvY+QI0AC6YvMNa24h2/X7SxiZDtefa22ZjAcHaiNAA0gr+kGNlR6egnrqvIFP/U0+izd19KHOyVOmruj+z/24oAIBGkAdTd5M8kJv0wA9N66/efOYTU+fzznmgcboEaABpNnsjcnbhjc6jN3UnsNj/jA0hrnnMVEEaABpbQJ00zIM4VjL9ftL6JiGvPmg+97v0PtkCAcaYRo7YOa8IHqipA9pcSKFojeN0g/bXhDtk1Pm814Q7aKNp75aScofJumVceg3nhbLC6LnpK66HjhNPdFyfbbDwJGW6xuTJw/dgLq8IDrUoHgfHWr/7AXRqqQT21TiBdHLJf2XNrR5+bpyjqQvSHpacvtJkh6ZXN6qoLqi/427eEF0rqT7SNpSi3nsT5Z0O0mXSvpqHPpPT7XprpJO0WLKyl9IOiQO/dz5370g+mVS9t8kvSQO/aHmp0cL9EAD+H/JcueSMlUB7KCC2+8pad+cev5LGz7ANw2/r2+43RjcZ+gGYBJeM3QDCjy45fav1cb5Zfm6cmNtCM+S9C816ip7bbthUsdjk+v7JrfdQmtf85YfrJaBPSyp99ZahGdJekONNsJBBGgAddjqwWQIxzA4fkAzdf93lq9t/K/NBAEaQFrT8YBFbxrZ263MwpFMh8cYRQBt2e4cWG+5XjiKAA2gjqo3g7L16YBsaxo73pzMcLyQZyrPizb3w/ZZDJlabyYI0ADSbL/o1+mBBmCOoQIblL2utPnwLzGEAwUI0ADqaPsmVKbJGGiCOOaO/4ENuj4W9EBjDQI0gLSu50RlCMcw6BUD8tXpgbZ1IilMCPNAAzPhBdHtJD1oOedo8kO8wyTtmhQ5SNJTCzb/Vy+IHinpEXHoX26w2/dLOjZ1/YleEMWpNu1ds54dM9efocXcrKjnvkM3ANbtULbSC6Ib1qjjJZI2tdOc7nhBdLiku0s6Og79DxtunhtkvSA6UIup5J6Wt75mu+4hacc49D+ds58tvSB6haTDteisfKmkIwxfP+EwAjQwHx+RdAcviN4Uh/56SZ6kV6fWv7hk26NTZfLmli3qbdlS0sGp6+/KrI8kXVay3yLvaLDNnL126Aagdx+pUebanbfCjiBZ7iMpL0A36e19X7KsOtlM2bc330rtP68N/ynpXEnbJZevkvQ6gzbCYQzhAObjDsly+ULfpOfJdq/v9SzXB2DhukM3YCS2rljfdAjH0hbacBZEvjWbEAI0MD9dT/lkqmqaO9M6gLmb2zzpbWbh6KMNmCACNDA/rr3QE34BtNFlp0DdHmgXQjx6RIAG5sflF3PCNABTLnyrxjzQM0OABubHtQDNGw5gn2v/50Pp60QqZfXxGjdBBGhgfrp4Y+XNGsAY2TqVN0M4ZoYADczPihdEm0vaqcG2t/SCyEvf4AXRDpK2adGe9OtQ0zea7VrsH5iiSYY2L4humnPz1l4QXb9gk6rjsFXF+sreYy+IdtGGWY3KXgtXvSBi5qGJIEAD83SCNsxhauIxks7KvAmcL+mhLdpykxbbApiXP+Tctpek8xrW98AaZapC+O+1OCmLJL2iop4L6zQK7iNAA/OzonpvGmW66vFlrCAAwHkEaGB+bHy129XXw5P82hkYAP9LC22PQ9sTqayKjoFJIkAD8+NygAaAKZnbSW1mgwANzA8v5gBQj83eY3qiJ4QADcwPPdDA9PE/usDrHTpBgAbmhzcDAKin7RjoNF57J4QADcwPL+LA9PF/vmDjR4Rtt2foxgRtNnQDAJjxguhoST+KQ/9dDav4lYVmdPXm3OaELAAWHiDpF0M3whE/abn98yTdscX2R0o6N7l8UJ0NvCB6sqRjk6sfk/SlOPSP8YLoBEkPk3SbOPRtvI6jBXqggfF5uqR3tti+yRkIAWCMbtxy+ztaaMONkuUNa5Y/NnX5AEnvTS4/LFm+xEKb0BIBGgCA6WEIB9AhAjQAAMB48OHIAQRoAE3woxgAwGwRoAEAmB56KaeLDgwHEKABNMELOAAMgw9HDiBAAwAAAAaYBxpowQui/5b01Tj0TxywDQ+X9EtJ95T06Tj0L8ysX5H0eMu7vb2ksyzXCcCeWw/dANTnBdGuknaJQ/9rBetfnLp6oBdER8ahf1ovjUMuAjTQzguTvyG/Uvt06vLuWkz8n/ZAScdZ3udnxNeIAGDL75Jl0evqGzLX95BEgB4QQziAablNzm079N4KAECX+B3KwAjQwPTRUwwAgEUEaGD6+D8HgGmhB3pgvLEC08f/OQBMCwF6YLyxAg0ls1uMwVjaCQCohwA9MAI00NxYgin/5wAAWMQbKybHC6IVL4g2TS5vllm3abJ+Ey+Iaj//03WmGAVoL4i28oJoG5NtMttvnW1TTrH0fV9Jttmi6T4r2jOWDxAA4Kz0e4vB6yo90AMjQGOKjpF0lRdED5a0zgui3SXJC6LrSLpK0kslnSnpAoM6o2TbNNP/n0sl/c0LovsYbicviO4s6e9eED0idfOzc4ruqw3tfJWkv0s60nR/NX2vo3oBYE7S7y3ra25DgB4YARpTdGCyfEiy3DtZ7pQsnybpZpKua1Dng3Jua9oDe/cG2+yZ044nVWzzHw32Y+KuHdcPAMhHgB4YARpTVvQCY+uFp8//n+W+0r0TVzOMAgCA/hGgMQcrmaXtevuQF6BXe24DAMAN9EAPjACNKVu+wGQD9Jh7oK9O3bZeBGgAmCMC9MAI0JgjWy88fYbX5a+0NxrC0XMbAABuIEAPjACNKVs+v7sawjH0GOj1FW0gXAMA0AECNKasKED33gNt4cd+eT3QDOEAgHmiB3pgm1UXwZh4QXSwpHdK2jcO/a8M2I6tJR0raRtJV0g6LA79n6bWP1/SGXHof7FmfXeQdKik8yQdIumWyapXSjpa0gu1CMwPS212ULK8YbLcKlneOlXvJyV9U9IrJL1a0pslXSJpP0k7J9dvktOeYyU9OXX9eZK2lPRFSY+XFGgxJ/OXcu7OQV4Q7SjpI5KeL2lrSbeR9CJJ/ybpfyR9QtLbtJhqbwdJfrLtk1P17CfpdTn1ywuiAyRtnrfOJi+ILul6HwCANeg8GRgBenremSyPl3T9AdtxK0mPSl3/taSXpK6/JVnWfRF4laT0SUQCLc6w90RJj1H52fbOK1n3yORPWoRlSbqOpFPzCntBtBKH/qo2DrKS9NZk+XJJ20l6rRZBOM/NtQjOd5O0V+r2zyXLRyfL5+Vsm31MX1iwj6J927ZdT/sBAGywu/p7nUcOhnBM1w4D7z/73Gr7aTl7CuyttOFEKFWnqr4004bzW7Sj6n4sh1qsqvoxGPoxAgCME0M4BkaARldcem4txw1nx0Q3UXW/bI+zBgAgi/eYgbkUcjAtLj23li80Ntrk0v0CAMzT+uoi6BJhAF1x8bllo3e4qvfaZMo8fgQCAGiCHuiBuRhyMA0uPbc2ySz7GMJRZx8uHSMAAFATb+DoikvPrWyAbtO2utvSAw0A6Ao90ANjGruJ8ILolpL2ydz2NEk/kvRjLeYR/r2kHSXdWNLfJX02Dv2rC+q6U7L+8oZNyg2aXhBtI2m31PWDtJhFY1n+T5LOkbSnFtPJXSjplIZtWHq1F0Q7SLoquX69FnXt4QXR7iXrlzOCHFijLq9FOwAA80WAHhgBejqeosWJRtLemywPlvSunG3uJelbObcfL2kPSQckl5so6l39mKT9U9ffU7O+vBOS1HVDSYe32D7tmzXLvbm6CAAAGCOXvmZHO6eVrNstc/2TyXLrgvI3qlhfR9Fza+8WdQIAAGbhGBwBejouLFmX/Udbnpmv6BuI1Yr1dfDcAgCgGwzhGBghZzquKlmXDdBXJMtNswUzqtaX4bkFAEA3CNADI+RMR5MAXdXD3EUPNP/0AAC0w3vpwAjQ07FmNo2UbIBezqzRZ4DmFNcAAGASCNDTYdIDPcYAzZzJAADACQTo6SgL0FlDBOjl9aYBus14bAAApoRvcwe2srrKYzAFXhDdTtLPahZ/hqSjtfgHvFSL+aCfKenpyfplWF2V2VQ56ZC7KnqNAQDowqFx6L9u6EbMGSdSmY4/1yz3ckkfkbS5pDtoEZp3lbS7pD8k6yTpWpLWGez/ftp4jufPa3EGxHXJfn6ptSd6AQAA5kzen9EBAvR0XJm6/AVJD8orFIf+8ox8b/eC6LZaBOjNkr9fxaF/WJOde0F0uDYO0J+IQ/8DmTJDBOjvSLq7pF9JuvUA+wcAABPDGOjpMBkDnd1mGaCb1LGUHerhylmSrs4sAQAAWiFATwcBOt/6zBIAgLHjN0YDI0BPR7qHte4/1hwC9GpmCQAA0AoBeiLi0G8SWJehe9Pkr80wB1cDNEM4AACAVQToaarb2zqHHmgCNAAAsIoAPU11p7dZBuYnS9pJ0wzQjIEGAEwNY6AHRoCelm8ky9dKOiZn/Usy1y/RYpq3m0q6SNK3Wuw7G1D7GnP824r1b5P0J0kf67ANX5H0zQ7rBwAgjQA9MOaBnpA49O+duvp9SQd5QXSBpO2T9W/MlL9K0j0s7d6kB/q6cehfIkleEB0s6Z2Sjo5D/5l5hb0g+rYWczl/W6n2xqG/4gXRqRXtOj0O/Z29IHps1R1InCjpwZIeqsUZGl8iKZB0PUkvzdsgDv19k3ZmPzTsKunM5PJRkp6ds/nOcej/qWB7U/trcQIbAADQIXqgYYtJgF6fc7ns0/SyTN7ztSp0mo6BTrdjNXVbk3Cbdz/LyrTFOG8AmAd6oAdGgIYtbQN02XOxLLxWvYgsx3XXDarL+lYz+20SoOtsb3OoCwEaAIAeEKBhi0mATge9OgF6qcknbtMAvZQOtk0/6ROgAQBdoAd6YARo2NK0B3oZIOv0QOe9YFQF0GWAZggHAACwggA9fX3NhtHlEI4646SLtOmBtjmEo2j/Nh8fpuoDAKAHBOjp6+trnmwQ7GIMdJPn67JXtk24bHoM83ray8q0RYAGgHlgCMfACNDT96Ge9vN/met/yynziWSZDpNnJMvvldT9tWR5Uuq2s5LlVyratQzQu1aUW1rW90dJP0ou/yR12cSqpOOTyz8vKbP0a0nnZtb/SNLva+6PIRwAMA8/GboBc0eAnr6XStpLizMNdumjkvaRdCdJe0s6JafMgZJ2i0P/mtAYh/73Jd1K0jtK6n6NpFtKekVS/420mBdakl4p6Y7aEM6XbpDZ13J5WqbcoZL2lHRjLUL2WyTdPg79n8Sh/wlJt4pD/3Nx6H+qpH1F1kt6qqRbS/qgpH0LyiztI2kPSbeXdE9Jd0lu2ztV5rOpyy+Q9NXU9QsL2nG8FsftUfWbDgBwVRz6nxu6DXPHiVQmLg79K7Q4qUrX+1mnirPxxaH/d0m/ybm99GyCceivl/S75OppmXVXSDrdC6JfZ24/X9L5qZuWAfp0LULq0jlx6P8ws8uf1W1bhdU49C/Vhl72r3hBtKZMal9/SS7+JVPm0tR26R7qz0raVtJ9k+vLr/T+IWnLVLnL4tA/zQui9G0AAKAheqAxF8tweVVpKbvq/ECwzY8IV5U/bKOPHywCADBbBGhMRVU4LArQXYbKOj/qa/PDv9XM9sv7mK0zO4wFAAC0QIDGVDQNh13+krnvHujlfSn6MSEBGgAACwjQgD0mU/mZlCnbtk6ApgcaAACLCNCYirpDOLoMkdm6++iBrjOEw8a+AABAggCNqfhHxforCsqtM9hH1TzLP8tcLwusP61RJk/27Ijp+7Ns3yU1tgUAAA0xjR2m4s2Stpb0Yy3mgM46VpInKZR0thYnStldG050UscDJN1Z0k0kPVfS07XxCVaeJOkwSY9Jruf1BD8t2fe5kh6STP9Xd9+3kHSH1G2rkt4vaX9J39BiisCXSfqcNg7zBGcAGI+/aTFFKRy2srrKeytgixdEu2nDvM9bx6F/meX63ynp4OTqjeLQ/3NOmW218Zkhj4lD/yAviPaUdKrN9gAAGvmMpIfl3H5UHPqHeEFUGs7i0OdU3gNjCAdgV/p/qutPp0X1F01jBwBwG8F4JAjQgF1d/0+lw7DpjwV5YQYAt/E6PRIEaMCuPnugi9ADDQDjRIAeCQI0YFefAXrTgtvbzC0NAOge3xSOHAEasCv9P9X1C2FRgKbHGQDcRoAeOQI0YNcmBZdtSb/o1u2BXm7DCzMAuI3X6ZEgQAN2nZm6fGUH9X84dfn8gjLZAH2chf2anHAGAFCObwpHjhOpABbFoX+xOuxBiEP/O1X1x6G/6gXRJnHoW3uBjkP/2pl5Sf8uaRtb9TdwoaTtB9z/mJwjaeehGwHYEof+StU8ySO2Im2Y59kLopMk3X/QFiEXPdDABBWEZ74aBAC38To9EgRoYD6m9MI81d6nLkzpcQemgh8RjhwBGkATvMgDQPd4rXUUARoAAKBf9ECPHAEaQBNDv8gPvX8A6AKvbSNBgAbmgxdmAAAsIEAD83GJxboI4wCGdPHA+/9zy+3PLLj9N5nrP2+5H3SEAA3MRBz6v0hdPaxldauSPEkfaFlPm/0DmC+vRpmTC27/Qc19vKlk3Z0l3bNi+4tL1n1Q+fM7h5nr/1GxDwyEAA3M06/aVhCH/u8lnW6hLQBgJA79SyR9qqJY2evTX2vs5oySdefFof/tin2cUrJuNQ79L2dvjEP/6sz1Ls5oCwsI0MA8te3BXW6fPW14XxhCAqBK29eJstc3W6+hGCkCNDBPtl68hwrQqI8PG5iqrkNoWf119k1InjACNDBPtl7Yr64uAgCDaBuA63QQlNXDh9cJI0AD88QQDgBTV/Q6Uff1r20Ax4QRoAG0wRAO9/FhA1PVNMSu1Ny2zhjopiGb/8uRI0AD87SppXoI0O6jpwxopvB/Jw59/q9mjgANzMvekt6Wue1vki7PKXtBQR3vkHS/5PJHLbULgF1nd1DnwR3UaUv6xCZfq1H+QTXK1AnJjy9Z9yxJH5H0tJx1yx7op2jDfPpPKajniBrtQM8I0MCMxKH/vTj0n5+66YQ49LeLQ3/LnOInFdTxnDj0T00uXybpsg6aCnvm8FVxnTA0Nyd2UOeaeYstWWdQ9tiC209IXf5aRR2rcej/uMa+lgH6c0UF4tAvnFM/Dv04Dv0nxKH/Pkk7FpQ5Ng79A+PQX4lDv+i+HVmjregZARqYt7F+DTmHUIj6xvo87lIXx2Qqx7nu68dyiJqN15upHDskCNDAvBFEp28Ob9xzuI9YSL9mDTkP9JB1wQEEaGCeeDGfDz4kzRM90MXq3g96oFGIAA2gCMELY0E4WYsA3V6XPdC8vo4cARqYJ168MSVzC3ZT0/fjV/f1jyEcKESABgCMHeFkrTn0QHfdHoZwoBABGpinnyXLz5SUWb5pfCF12/e6aY4xetCRRjhZaw4B+rOpy+nXhCtqbv/mivW/SJafrt0i6XeSviLplMztNo/dry3WhYYI0MAMxaH/a0lbx6H/gZJiq5K2kPSQ5PoWku7VcJdBw+2AOlwLdiZO76he14/JpyXdxqD8cq7oa4JyHPofzin3QklXpq5vkbq8T7pgHPovlHQzFR+r30naWtIxkjaXdK2KNm4u6dZazEt+n8w6G2OgL0r2cbsG28KyzYZuAIBhJCdBqSpzRd7lBq5usS3amUNvvethsUzeWUBdZfM4/11m9/1iSTeoUe5ySdecGCoO/Su8IFpeXfMaFof+H7wgKvofWU29Tl4pSam61ohD/8rClXZc1sM+UBM90AD6wGsNgLQhP/TU3bcrs3DM4UPw6PCmBqAPvAGgS2Puge7KGMZAD/W4DTELByaGAA2gD7YDNIG8vjkcK4LOWq4H6NWCy233XVbOtP08r1CIAA0A0zaHEDCH+zh3y8e4t6EPcejzvEIhAjSAtuq8Sc2hFxTDIeisNYYeaJP6xv4Yj739yCBAA1g6s8O6L7Rc3+8t1zdlFwzdAJRyJVj9oUYZm209z7D88vXpr5nb/y9Z5n1IX80slzNq/Mlw32l/b7jd+sx1k06F5cwbdR4j9IQADWBpH0mParH9SanLr0hd/rik90h6esF2j5B038y+q97g/sW4dfN1xNAN6MGQIfQtA+67TN1jcrCkIyXdvcO2pP1Ai9eCV8jscbuPpIMkHZq5/X6SHlywzTKk3lKSH4f+zyU9SdK/FZSvc8KU22vD3Pi1xaH/D0mPlvkHB8Wh/xdJj5P0MNNt0R3mgQYgSYpD/xxJnyqb57TC57Qh2P5A0ie1CMUfj0N/vaT3ekH0npzt/jd5c0nPsfpTSTcuaeufW7RzbtZVFxm9IQP0VyW9YMD9F8k7Jt+WdI/Mbb+IQ//dUvkcxyV1GrcrDv33Vuzvd5Jukb4hDv11WpzQRJnbf5jU9dCiyuLQP1NJD3Yc+seVtO1kLT7QF4pDP5YUl5Up2faTXhC9QvXms85u+7Em+0R36IEG0Naylyf7FWWbN1tXvtbGOIz5+dLV7wO6mOvYxnFO39+i+prsZ1kvrzvoBQEagC1N33zytuONDCbG/Hzpqu3ZD7RFXPiBryvzS9c9Zja4cNzRAgEagIvGHIjQP54v9bQNbWM5zi6H07EcQ1QgQANoq+qr06o3M95QgHmyOYRj6G1NuRzyUQMBGkBbNsYeZhGqYWLMz5ehx0APXWcXbA4ns20sxxAVCNAAbHH5TQvTNuRzyNXn7xgCtM36bHwQcfWxhIMI0ACK1J0/+EmSfiHpM6nbvqtmp95denXm+h9zyvy8Qb3/IelHWsxLPRd8VdyPJs9HyX5oO06LuYY/mrPuZanLz9Hi/+rHNes9t+D2ojmVi9R5Pg41DON7kk5tsN27Jb2jZtkXaXEiqDMa7AcOYR5oALni0D+tZrnjJR2fXL3mzdELorpDO9asj0P/+5k5Yu8u6TBJz5D0rKTMP3tB9CVJ+5XUfYqkvVL1vkHSG5L2fUHSpyra5qKfSfrnoRvhmD5nT8haPs/PknQ7i/XuJ+nLBuWXJyv6bRz6T/KC6DrZAnHof0MbB9i6oU+Snq38/9UPekG0kzZ84D5N0h4163Stx/fiOPTv6gWRUbvi0D/YoOxXJHmmDYN76IEGMAaratejPSWuhQ7MR53nXpPnp+35pZvifwu1EaABdKWLEzkAeXgOTWsc+Bxm4cDIEaABjAFvbCjjwvPDlRDZ5bGw0QNd50yEgPMI0ACGZtpTPfc34LkPYckzx+dBVh/Pi6kf56nfP1hEgAYwFry5LZgeBwL3PLgyhMPkB52u/U+71h44jAANoGs2zkSYLmMrEBIsp2PI4DOn51GdMwcO9VjkPQ6mjw0BGrURoAGMxXJ+1l8abDPFcDPF+9TWFINP2zHQV9hqSA3pObC/XlG2zvP3y9owP/XParbh+8myzfzKy2P3vRZ1YCYI0ACGsHPqct2g8AFJ/5TMo2pDm9D1K0n7WmqHK37YUb1RdREnvD9Znihpe0k3k3ROTrkdU5fP67pRTcWhf7kW8w2fbrHaov+ZkyTdQdJukv5fQZkXldS3KukGkq4v6RaS/l3SPSXdRNLeybLK0Vq8PnyzRnuLLMvvK+mmhttiZjiRCoCuFL55xaH/p8yJUqpsEof+qqRft27VBm16cm23xXTfXbiyYv2lkrZuUO+fG2wzhGWP7Slx6F8k6SIviH6qjT/sKQ7981LPXWcDtCTFof97L4hs9kTnPveS/82fSpIXRJsWbFvakxyH/vnJxQuS5TotnnOS9PeqhhW8PjT6H49D/zJJlzXZFvNBDzSArtR680re+Kq49lqVPrFL30xDwRyGfIx5CIettrt+DPLa51qbXWsPHObamxIA5Gn6WtVleBxLgLaFcFGu6fGx/Xi6Og/0GM4kynMctRGgAXTF5puRi69Vc3uzdTn42NDk8XTpmIxxHuiu/odcPAkNJsbFNyUAyCoaVzmUIYMT80B3y5XjNbUQWNYuV9rsSjswAgRoAGPg4msVb7bT0rQHum3gthXY+3g+2hjC4bIxtBGOcPFNCcA0/CNZXmWhrqI3tksLbr+kRp1tgstOmt8YaJfZeCzy6qiaieH3FvY7Jm2O89XJMn1MCawYLQI0gK78u6TXSjohddvtJT3XsJ6XS/pNwbpnSHp1zu2+pJemrh8m6VGG+y1zgarf/A/PuW1PSc8v2eYzjVtULB24/9SinuX9/deSMh9tWPczJH1b0t9St7Vp69KJkg6W9NmG2z+zYr3pc9nEKMNlMqvOC3JW/USLOaIf22NzOBMhOkOABtCJOPQvikP/sDj0r07d9rM49N9uWM/hRVPdxaF/Xhz6r8y5/dtx6B+hDW+gX4pD/1OZYm3fLEu3j0P/5Tm3/VDSews2+d849B/edr8lPqhFiKlT75k565fH8htFFcSh//gG7ZKk/4lD/57aMAewJH28YV1pR8ah/25JpzXZODU3cdH69Ac7V8LX0LNwKA79t+ZtG4f+a+LQT5+cxpVjtuRae+AwAjSAObD9xrjSos62belqCEfdepue3c20rI3HjOEudrV5TIYIp10+VzFzBGgAc5AXpOYSrsZ0P9NtbRq8mxpqHucx/YjQtq7bzBAOdIYADQDmhjwTYVNV7XXt/thsj0mQcuUDh4vTFY6tB9rUGNoIRxCgAcyB7dMItxnCUVZnHVMMMauZZfbylE395CS2tu/DGNoIRxCgAcxV2x67sUxj50qPah22h3A0eYz6Hts+liEcXXxodDXsA5UI0ADQzFjCRLr+uvtw4axxfYeg5f76/sCxdc/7a6Orbz9c+ZBH8EZtBGgAUxOmLtt4Yz5ca+ckPqJFfW3fpL+Zc9tRObf9VNIZ2jDt3IfUXVD5lqQfttg+bwiHyTR2V7TYd7YNpk5NlkXTEzbd7xjC3JsMytoeRlXmpGR5vOF2YzjmcMRmQzcAAGyJQ78oIJa9MX5K0iML1j0hDv2PeEH0Cknr0vvwgug6mbKflvQIg+Zm5bX9eK098cSZceiveEF0uaTNkzYd4gXRszPlHpSac3fZ5he3aF+hOPTvVbLaJJRccwzi0D9V0ooXRGdKunnFduuq6utKHPp/1Ibju7ek71aUX/GCKH1MitqeV7aOLodFXFN3yf/a0gGSPtZRW0rFof9LNXvsCdCojR5oAKhWp/dsDG++Q7Sxj2nehpzGzhVjnIXDtWPuWnvgMAI0AFRzMUC7Mm60Sp3jkjeEY4yGfExcP3aut08aRxvhCAI0gCkrCzQmYWcMvWdZY5zhwHYAdf0xGhuOJ5AgQAOYg1Zv/HHou9QDvQyZY5sFpKkxndK7SVvH8qFhteD/oPb2NW8bkmvtgcMI0ADmymRoga36ysoNPb9z0zmYbSgbwtF3+G2zP5ttdS3Mdfn8dGU4kmvHHA4jQAOYqzpv2mVlhh4DPRaNZuGwxKS3nsevW/RAY1II0ACG8tse9mF7BoefN9zOpuV+Ty0tVb6t6bo2+uhdrNpH2w9LdV3UYJtfWdhvHziVN5BCgAaQtbuknXvYz96S7pK57faSbppcvq0kr2Zdt5N0MzvN2kj6DXUvSfcuWGd7X2WWQe/BlvdfV9v7/cCSOsvqfrGkc5PL3y8pV/cxys6vXVT2ZpL2KannGnHo/0rSQ+uUTXm5YfkiVccwO094mQe0bEtdrgVW19oDh3EiFQAbiUP/Jz3t53xJ52du+1nq8i8N6vqFxaalpU/skQ1tg77ZxqF/sRdEZUVcDQMnS/qNpFvlrCvrBf6UpBtIeqmkX0q6a0G5b9VpRBz6H88cv9zjFYf+H7wgurROnYmvGZSVik+kYvvx+1HdgnHon1Tx3Koj+1i6+ny8RssfSWJm6IEGMAddvDHaHgPtyg+pbLMVpKZ6fGxxPfy53j7ACAEawJS1DV19zsIxVSbj0Jv+0GzIGUSyphr0uzil+NCPFdAYARrAXNmehaOtocPEasHlPuUdb5fncLZhLPNAmxrdEA7ABAEaAJrpYxq7Pnsz6+5rqBObDBnAhpyKry7XA6rr7QOMEKABzEHToQEm076NYQz0ECGm7RAOk3rGaGrfZDQx1ccWE0aABoBiJm/sXcyT22cYSu+ry0CzKrP71dcxsHEmwnQ9dRXtr+mYY1fD6BiDPVCIAA1gyp4g6ThJP81ZVxY0/lyj7vWSjsq5/RuSXltje2kxNVvW/hXbpNv9CEn/WVAuL7A8V9LxJfW+t2LfTTQ54UtaVSD8gKSzl1cKpiKzfUKd10l6SMG6vH0dYVB3U7YD6utbbr88DmdLemdFWcI1RocADWCy4tD/RRz6T4pD/6qSYnlv3l8rWbesezUO/UMk/TWz6sQ49A+rs7849B+Vun0lue0L2dtK2nBCHPqvKiuTKR/HoX+ApDcVFHlDto0WXCXpY5nbbPWSnhGH/oFx6K+3UFftNsWhf2gc+idWFLs6Wf4jDv2XNm/WGn+qWG/rsQst1fOdOPSfXTHHsqu95kAhAjSAubP1lf3Ye9G6nIav6hi7NDd026E0Xc8+0feQlqb7Hfv/A1CKAA0A6FuTcNV1IHNtDHHR/bU1ZrprrhxHoBMEaABzZyt49P3jsy721VXoyZ7opO9wZXsMtItc7ek2mckGGA0CNACs1Wae4qbhMG+7rgJGV0MqmppikJrifbKNXmqMFgEawFyN4c27TRvbBLgxHBtXceyAGSBAA8BabX4oV7Vt0XoXeizbnlzGRvmsuQbSpsNsuhp6YWt+6zZ1As4gQAOYq76n1fpQxfo+g+LJPbZhJV1vwXRmXQR3m0z2fVmyfH/NbS82bk2+5VR+2cdwOe/3H1rWf0bq8icNtiu7/+uS5THmzbHqEwPvHyNEgAYwV7bDYtkY6K0kHWh5f1kPqFswDv3PS9qmpEjXYbXJse/rA0ar/cShf4WkrSW9uGb5vxnuIv3YbJ26XDQX9pskbROH/rkN93NFsv1vk+tbSTrAsK5cyfzsW0t6no36WnicFvcLqG2zoRsAAAPr/BTacej/o4d2XG5QVnHoX+oFkckmU2ftMY9D/zIviMo+oLSR7s2/LPUY5gb/pMf/0hb7W41D/5rtaz6Xa4tD/7LqUt2KQ/9qSVbvF6aPHmgAc5cXPEx6IbvsrW3bNhNd3Q9bwzP4UWQ9th/HOR07oDYCNAC4oW1QaXsGvI3GKpfoqt469fRh7D9ss3Wcxn4cgE4RoAHMHXMe98/lk87Ymo+7q/tIjzDgAAI0ABRzMex2OdSirxO3NOktd/H033WM9QMa0w8CJQjQAOaqzhu8SQjoq1d1bMFkLEHMhbA9RRxXTBIBGgDsahr4LrDaima6mgd6iP2m661T/4XJ8iJL+746Wbadf/nimuWWz59LWu4vq+lj83/J8jxbDQFcQoAGMFe2hw007WmLk+VrSsoc1bDupsrui40exY1CWRz62TmMH99gf/tL+qcWbTpK0sGS3t6ijmsk07MdIGm/hlUs7/cdJT28Rvk3aNH+91cVLLGXpLtn9t/UiZKeIellLesBnMQ80ADmypWhEOkTVhT5lqRnJ5ddabeJsjZ/Mee2U2pue4049L9g1KK1ropD/90t69hIHPrHV5cqtJrU8XtJv6+aszsO/XWSWrU/Dv3vt9k+U9eqpPfYqg9wDT3QAObOlR952R4rbFpfurzNkJ7Xjib1D3l2xDmO453jfQZqI0ADmDuXe3SXbUuHmb5myuir3iYBu25by06v7rqiU3OP8b4Ak0OABjBXZUHUxR7SPtnqNa4jXe+UjmFbHAvAYQRoAHM1hp68vB7Uona3DVx1t7f+I8Iat9veTx4C68Y4HkAJAjSAuZtKUOj6A0HT47SqcXxYcY0rz0seOyAHARoAig1xCuc5cyU0Zg3RrqGPxdD7B5xGgAYwVydrcfKMIyT9QNKzGtbzLElnqf4JI7LBpCxwL9ddXVKm7n7qMA3/x0l6W41yryvZT5PZP2ItTlDy7zXLH6PyE6T8RtK6mnV1bZ2kcyT9euB28EEQKME80ABmKQ798yXtkFy9iyR5QfTOBvWcIOkEL4jClk2qCryvl/TSkvVdB5419ceh/6Q6G8ahf2rJPMZNZty4PA79m9XY9XIu5d9K2t4LotxjHIf+bjXqaiUO/bqPz5fi0PdL1hNsAQfQAw0AdrQNNnnbuzJHtWmZKoRA9zGEAyhBgAaAYbU54UmbekzZrL/J3NAm28MejjWQgwANAHY0DZh1A0ofQcaVsGSrN96V+wNgYgjQALDWEMGr7clLuj79dlea7MvFoS1j3FcdrrUHcAIBGgCKWQ8Pceg3DYxDBxmbAb3qxDC27uvQx2wK6MUHchCgAcCuLgLHSoN6uwqPLoTSKYc6F46v5E47ACcRoAHAjqLAUTW/8JeT5f8Z1NmVC5PlV3LWNT3V929yypxUu0Xz892K9X19eFifLD/f0/6AUSFAA4AdecHmhpJ2qtjuEEm3jEP/gpp1dmU1Dv2/SLqlpBe0qGeH1OVbx6H/jZwyz5T0nBb7mGrv6D9JKppPfEdJ1++rIXHoXy3p5pIO6GufwJhwIhUAsOuacJcE0lJx6F8p6Xd161R34XElac/vJKnkxCel4tC/aLltHPpnFJS50guis5o104itDyC9BPY49AvPPhiH/nlS88elYXvi3nYGjAw90ABg11TH5w51v/L2O9VjDGAkCNAAsFaTgDb0sIK2obLpGGeb+yu7D2OY7g7ATBCgAcB9LgT6ocNo+hgM3RYAM0eABoBxmMOwBYIxgFEgQANAMVdOH93Hjwj7Zjq2OX2/5/Bhosic7zvgDAI0AKz1j2R51aCtcMtQwe3SZNnkg8PVltowlQ8tACxhGjsAWOsFks6W9NkG244pbD1W0h6SXqa17X6IpE0lnZC5ve/TbD9I0uMknWOw7asl7S7paxXlniHp9JrtcNV+6nF+aAALBGgAyIhD/0JJhw7djpROen/j0P+4F0TnaxGgVzLrTpT6nXc4JT2X9lmSDs+0pfR4xKH/yjo7iUP/PQ3b54w49E8eug3AHDGEAwDs6mqog2m9XU1L10cPO+N8ATiNAA0AdnQZLOvU3TR01t3OdqhtU9+YhskAmCACNABAqg6ly8DbR3gt2sdQPdMuBXZ65wEHEKABwI6+gk1XYa5u+/v+ESEAOIcADQAYC0I3ACcQoAHAjrGHuzG0n+ELAJxAgAaADT4i6ZKhGzGQqnCaXn9kg/rDGmVenyz/WlFuDGHfxC8lfX3oRgCoj3mgASARh/4Thm5Dia6msTPd/2oc+s+T9DyTjePQf5kW802XlXmXpHc1a954xaF/26HbAMAMPdAAYNdQwwza7rereaOnYI73GUAJAjQA2NFFyGKuZGQxDhxwAAEaAOzoMtisFly2aQzBbAxtBDADBGgAcF+d4JgN1l2NgQaA2SNAA4AdXfQMm9TZ9RjoPs9ECABOI0ADAEy4EKD7boML9xmAQwjQAOCulYLLddQNfRcmy1+VlDlL0g8M60Wxy4duAIB2CNAAYFcXY4Xr/Iiw0X7j0D9d0n6SXlBQZK/kb39J94hD/6om+3HELYZuQMKVdgBoiBOpAIAdXfbMNumJrt2eOPRPLln3/dTV79St01FnD92AxLkttuXHnIAD6IEGADu67nm2WXaunDhGceg70Q4AzRGgAcAum+EoL5TP+YyB9L4CcAIBGgDs6qonuqpewmV3pvhhBEALBGgAsMO1kOVaewBgMgjQAOAuepXz8eEAwKAI0AAwLoTH5jh2AKwgQAOAXXV6jY+StG+NcnmBr6j+b0j6RI06XfEVSZ+U9FyDbY6Q9FlJ7+mkRf06WtK9G2y3fPzfarEtAAwxDzQA9CwO/UM6qPMKSY/xgugySVvart+2pL2PNtzmPEkP66ZFpaz3XMeh/8yWVfynlYYAaIQeaACwy5Vp7Bg/XYyhHABaIUADgPvqTGMHAOgJARoA7CLououeZwBWEKABwI4uw9mKQf2ERADoGAEaAMaBnu32pnAMp3AfgNEjQAOA+1YLLqMZ02Po4jF3sU3AbBCgAcCOryfLb3VU/8nJ8pSKcu9Plld21I4xW4bOYwZtBYDRI0ADgAVx6H9Z0nZx6H/VYrXXfF0fh/6JSf3fqdjmeZK2iUN/ncV2TEIc+uslbSPpWUO3xQKGcgAD4kQqAGBJHPp/G7r+JCRe2mU7xiwOfY4NgNbogQYAdzHOFUV4bgADIkADAFCOsApgIwRoAHAX41yRxXMCcAABGgDcRw8osnhOAAMiQAMAAAAGCNAA4D6+tsfS2cly/aCtAGaOAA0A7rm7pL2HbgScdH9J/9r1lIkAyjEPNAA4Jg7970qSF0TLmxjvOixnjn8c+udK+p+h2wHMHT3QAAAAgAECNAC4i7HPAOAgAjQAAABggAANAO5yZuwtAGADAjQAAOX4IANgIwRoAHAXY6ABwEFMYwcA7htbD+inJZ05dCMAoCsEaACAVXHoP3LoNgBAlxjCAQDuYygHADiEAA0AAAAYIEADgPvGNgZ6UuLQ5/gD2AgBGgAAADBAgAYAdzH2GQAcRIAGAPcxhAAAHEKABgD30RPthi8O3QAAbmAeaABwFz3P7thV0p+HbgQANxCgAcBd9Dw7Ig79s4ZuAwB3MIQDANxHTzQAOIQADQAAABggQAOA+xjKAQAOIUADAAAABgjQAOA+xkADgEMI0AAAAIABAjQAuIuxzwDgIAI0ALiPIRwA4BACNAC4j55oAHAIARoA3EXPMwA4iAANAO6i5xkAHESABgD30RMNAA4hQAMAAAAGCNAAAACAAQI0ALjrmGT5o0FbAQDYyMrqKkPrAAAAgLrogQYAAAAMEKABAAAAAwRoAAAAwAABGgAAADBAgAYAAAAMEKABAAAAAwRoAAAAwAABGgAAADBAgAYAAAAMEKABAAAAAwRoAAAAwAABGgAAADBAgAYAAAAMEKABAAAAAwRoAAAAwAABGgAAADBAgAYAAAAMEKABAAAAAwRoAAAAwAABGgAAADBAgAYAAAAMEKABAAAAAwRoAAAAwAABGgAAADBAgAYAAAAMEKABAAAAAwRoAAAAwAABGgAAADBAgAYAAAAMEKABAAAAAwRoAAAAwAABGgAAADBAgAYAAAAMEKABAAAAAwRoAAAAwAABGgAAADBAgAYAAAAMEKABAAAAAwRoAAAAwAABGgAAADBAgAYAAAAMEKABAAAAAwRoAAAAwAABGgAAADBAgAYAAAAMEKABAAAAAwRoAAAAwAABGgAAADBAgAYAAAAMEKABAAAAAwRoAAAAwAABGgAAADBAgAYAAAAMEKABAAAAAwRoAAAAwAABGgAAADBAgAYAAAAMEKABAAAAAwRoAAAAwAABGgAAADBAgAYAAAAMEKABAAAAAwRoAAAAwAABGgAAADBAgAYAAAAMEKABAAAAAwRoAAAAwAABGgAAADBAgAYAAAAMEKABAAAAAwRoAAAAwAABGgAAADBAgAYAAAAMEKABAAAAAwRoAAAAwAABGgAAADBAgAYAAAAMEKABAAAAAwRoAAAAwAABGgAAADBAgAYAAAAMEKABAAAAAwRoAAAAwAABGgAAADBAgAYAAAAMEKABAAAAAwRoAAAAwAABGgAAADBAgAYAAAAMEKABAAAAAwRoAAAAwAABGgAAADBAgAYAAAAMEKABAAAAAwRoAAAAwAABGgAAADBAgAYAAAAMEKABAAAAAwRoAAAAwAABGgAAADBAgAYAAAAMEKABAAAAAwRoAAAAwAABGgAAADBAgAYAAAAMEKABAAAAAwRoAAAAwAABGgAAADBAgAYAAAAMEKABAAAAAwRoAAAAwAABGgAAADBAgAYAAAAM/H8D30yYEpIijAAAAABJRU5ErkJggg==;" vertex="1" parent="1">
                    <mxGeometry x="130" y="236.25" width="85" height="85" as="geometry"/>
                </mxCell>
                <mxCell id="3" value="" style="endArrow=classic;html=1;fillColor=#60a917;strokeColor=#000000;" edge="1" parent="1">
                    <mxGeometry width="50" height="50" relative="1" as="geometry">
                        <mxPoint x="210" y="280" as="sourcePoint"/>
                        <mxPoint x="240" y="280" as="targetPoint"/>
                    </mxGeometry>
                </mxCell>
                <mxCell id="4" value="" style="rounded=1;whiteSpace=wrap;html=1;fillColor=none;strokeColor=#000000;" vertex="1" parent="1">
                    <mxGeometry x="220" y="200" width="410" height="150" as="geometry"/>
                </mxCell>
                <mxCell id="5" value="&lt;font face=&quot;Garamond&quot; color=&quot;#000000&quot; style=&quot;font-size: 13px&quot;&gt;Feature Extractor&lt;/font&gt;" style="text;html=1;strokeColor=none;fillColor=none;align=center;verticalAlign=middle;whiteSpace=wrap;rounded=0;" vertex="1" parent="1">
                    <mxGeometry x="380" y="207.5" width="100" height="20" as="geometry"/>
                </mxCell>
                <mxCell id="6" value="&lt;font face=&quot;Garamond&quot; color=&quot;#000000&quot; style=&quot;font-size: 13px&quot;&gt;MFCC&lt;br&gt;fft_size: 1024&lt;br&gt;overlap: 0.75&lt;/font&gt;" style="rounded=1;whiteSpace=wrap;html=1;fillColor=none;strokeColor=#000000;" vertex="1" parent="1">
                    <mxGeometry x="240" y="240" width="80" height="80" as="geometry"/>
                </mxCell>
                <mxCell id="7" value="&lt;font color=&quot;#000000&quot; face=&quot;Garamond&quot; style=&quot;font-size: 13px&quot;&gt;Instance-&lt;br&gt;Norm&lt;/font&gt;" style="rounded=1;whiteSpace=wrap;html=1;fillColor=none;strokeColor=#000000;" vertex="1" parent="1">
                    <mxGeometry x="340" y="240" width="80" height="80" as="geometry"/>
                </mxCell>
                <mxCell id="8" value="" style="endArrow=classic;html=1;fillColor=#60a917;strokeColor=#000000;exitX=1;exitY=0.5;exitDx=0;exitDy=0;entryX=0;entryY=0.5;entryDx=0;entryDy=0;" edge="1" parent="1" source="6" target="7">
                    <mxGeometry width="50" height="50" relative="1" as="geometry">
                        <mxPoint x="190" y="290.21000000000004" as="sourcePoint"/>
                        <mxPoint x="250" y="290" as="targetPoint"/>
                    </mxGeometry>
                </mxCell>
                <mxCell id="9" value="&lt;font color=&quot;#000000&quot; face=&quot;Garamond&quot; style=&quot;font-size: 13px&quot;&gt;GRU&lt;br&gt;512 recurrent&lt;br&gt;units&lt;/font&gt;" style="rounded=1;whiteSpace=wrap;html=1;fillColor=none;strokeColor=#000000;" vertex="1" parent="1">
                    <mxGeometry x="440" y="240" width="80" height="80" as="geometry"/>
                </mxCell>
                <mxCell id="10" value="" style="endArrow=classic;html=1;fillColor=#60a917;strokeColor=#000000;exitX=1;exitY=0.5;exitDx=0;exitDy=0;entryX=0;entryY=0.5;entryDx=0;entryDy=0;" edge="1" parent="1" target="9">
                    <mxGeometry width="50" height="50" relative="1" as="geometry">
                        <mxPoint x="420" y="280" as="sourcePoint"/>
                        <mxPoint x="350" y="290" as="targetPoint"/>
                    </mxGeometry>
                </mxCell>
                <mxCell id="11" value="&lt;font color=&quot;#000000&quot; face=&quot;Garamond&quot; style=&quot;font-size: 13px&quot;&gt;Dense&lt;br&gt;LeakyReLU&lt;br&gt;resample&lt;/font&gt;" style="rounded=1;whiteSpace=wrap;html=1;fillColor=none;strokeColor=#000000;" vertex="1" parent="1">
                    <mxGeometry x="540" y="240" width="80" height="80" as="geometry"/>
                </mxCell>
                <mxCell id="12" value="" style="endArrow=classic;html=1;fillColor=#60a917;strokeColor=#000000;exitX=1;exitY=0.5;exitDx=0;exitDy=0;entryX=0;entryY=0.5;entryDx=0;entryDy=0;" edge="1" parent="1" target="11">
                    <mxGeometry width="50" height="50" relative="1" as="geometry">
                        <mxPoint x="520" y="280" as="sourcePoint"/>
                        <mxPoint x="450" y="290" as="targetPoint"/>
                    </mxGeometry>
                </mxCell>
                <mxCell id="13" value="" style="endArrow=classic;html=1;fillColor=#60a917;strokeColor=#000000;exitX=1;exitY=0.5;exitDx=0;exitDy=0;" edge="1" parent="1">
                    <mxGeometry width="50" height="50" relative="1" as="geometry">
                        <mxPoint x="620" y="279.9" as="sourcePoint"/>
                        <mxPoint x="650" y="280" as="targetPoint"/>
                    </mxGeometry>
                </mxCell>
                <mxCell id="14" value="&lt;font face=&quot;Garamond&quot; color=&quot;#000000&quot;&gt;X&lt;/font&gt;" style="text;html=1;strokeColor=none;fillColor=none;align=center;verticalAlign=middle;whiteSpace=wrap;rounded=0;" vertex="1" parent="1">
                    <mxGeometry x="650" y="268.75" width="20" height="20" as="geometry"/>
                </mxCell>
                <mxCell id="15" value="" style="endArrow=classic;html=1;fillColor=#60a917;strokeColor=#000000;exitX=1;exitY=0;exitDx=0;exitDy=0;" edge="1" parent="1">
                    <mxGeometry width="50" height="50" relative="1" as="geometry">
                        <mxPoint x="660" y="268.75" as="sourcePoint"/>
                        <mxPoint x="679" y="240" as="targetPoint"/>
                        <Array as="points">
                            <mxPoint x="660" y="240"/>
                        </Array>
                    </mxGeometry>
                </mxCell>
                <mxCell id="16" value="&lt;span style=&quot;text-align: left&quot;&gt;&lt;font color=&quot;#000000&quot; face=&quot;Garamond&quot; style=&quot;font-size: 13px&quot;&gt;ẑ&lt;/font&gt;&lt;/span&gt;" style="text;html=1;strokeColor=none;fillColor=none;align=center;verticalAlign=middle;whiteSpace=wrap;rounded=0;" vertex="1" parent="1">
                    <mxGeometry x="770" y="228.75" width="20" height="20" as="geometry"/>
                </mxCell>
                <mxCell id="17" value="&lt;span style=&quot;text-align: left&quot;&gt;&lt;font color=&quot;#000000&quot; face=&quot;Garamond&quot; style=&quot;font-size: 13px&quot;&gt;M&lt;/font&gt;&lt;/span&gt;" style="text;html=1;strokeColor=none;fillColor=none;align=center;verticalAlign=middle;whiteSpace=wrap;rounded=0;" vertex="1" parent="1">
                    <mxGeometry x="770" y="301.25" width="20" height="20" as="geometry"/>
                </mxCell>
                <mxCell id="18" value="" style="endArrow=classic;html=1;fillColor=#60a917;strokeColor=#000000;exitX=1;exitY=1;exitDx=0;exitDy=0;" edge="1" parent="1">
                    <mxGeometry width="50" height="50" relative="1" as="geometry">
                        <mxPoint x="660" y="288.75" as="sourcePoint"/>
                        <mxPoint x="680" y="314" as="targetPoint"/>
                        <Array as="points">
                            <mxPoint x="660" y="314"/>
                        </Array>
                    </mxGeometry>
                </mxCell>
                <mxCell id="19" value="&lt;font color=&quot;#000000&quot; face=&quot;Garamond&quot; style=&quot;font-size: 13px&quot;&gt;Dense&lt;br&gt;LeakyReLU&lt;br&gt;&lt;/font&gt;" style="rounded=1;whiteSpace=wrap;html=1;fillColor=none;strokeColor=#000000;" vertex="1" parent="1">
                    <mxGeometry x="680" y="207.5" width="70" height="62.5" as="geometry"/>
                </mxCell>
                <mxCell id="20" value="&lt;font color=&quot;#000000&quot; face=&quot;Garamond&quot; style=&quot;font-size: 13px&quot;&gt;Dense&lt;br&gt;Sigmoid&lt;br&gt;Resample&lt;br&gt;&lt;/font&gt;" style="rounded=1;whiteSpace=wrap;html=1;fillColor=none;strokeColor=#000000;" vertex="1" parent="1">
                    <mxGeometry x="680" y="280" width="70" height="62.5" as="geometry"/>
                </mxCell>
                <mxCell id="21" value="" style="endArrow=classic;html=1;fillColor=#60a917;strokeColor=#000000;exitX=1;exitY=0.5;exitDx=0;exitDy=0;entryX=0;entryY=0.5;entryDx=0;entryDy=0;" edge="1" parent="1">
                    <mxGeometry width="50" height="50" relative="1" as="geometry">
                        <mxPoint x="750" y="240" as="sourcePoint"/>
                        <mxPoint x="770" y="240" as="targetPoint"/>
                    </mxGeometry>
                </mxCell>
                <mxCell id="22" value="" style="endArrow=classic;html=1;fillColor=#60a917;strokeColor=#000000;exitX=1;exitY=0.5;exitDx=0;exitDy=0;entryX=0;entryY=0.5;entryDx=0;entryDy=0;" edge="1" parent="1">
                    <mxGeometry width="50" height="50" relative="1" as="geometry">
                        <mxPoint x="750" y="311.11" as="sourcePoint"/>
                        <mxPoint x="770" y="311.11" as="targetPoint"/>
                    </mxGeometry>
                </mxCell>
                <mxCell id="23" value="&lt;font style=&quot;font-size: 13px&quot;&gt;&lt;font color=&quot;#000000&quot; face=&quot;Garamond&quot; style=&quot;font-size: 13px&quot;&gt;mean_over_time&lt;br&gt;(&lt;/font&gt;&lt;span style=&quot;color: rgb(0 , 0 , 0) ; font-family: &amp;#34;garamond&amp;#34; ; text-align: left&quot;&gt;ẑ&lt;/span&gt;&lt;/font&gt;&lt;font color=&quot;#000000&quot; face=&quot;Garamond&quot; style=&quot;font-size: 13px&quot;&gt;&lt;font style=&quot;font-size: 13px&quot;&gt;&amp;nbsp;* M)&lt;/font&gt;&lt;br&gt;&lt;/font&gt;" style="rounded=1;whiteSpace=wrap;html=1;fillColor=none;strokeColor=#000000;" vertex="1" parent="1">
                    <mxGeometry x="790" y="256.25" width="90" height="42.5" as="geometry"/>
                </mxCell>
                <mxCell id="25" value="" style="endArrow=classic;html=1;fillColor=#60a917;strokeColor=#000000;entryX=0.5;entryY=0;entryDx=0;entryDy=0;" edge="1" parent="1" target="23">
                    <mxGeometry width="50" height="50" relative="1" as="geometry">
                        <mxPoint x="790" y="240" as="sourcePoint"/>
                        <mxPoint x="780" y="250" as="targetPoint"/>
                        <Array as="points">
                            <mxPoint x="835" y="240"/>
                        </Array>
                    </mxGeometry>
                </mxCell>
                <mxCell id="26" value="" style="endArrow=classic;html=1;fillColor=#60a917;strokeColor=#000000;entryX=0.5;entryY=1;entryDx=0;entryDy=0;exitX=1;exitY=0.5;exitDx=0;exitDy=0;" edge="1" parent="1" source="17" target="23">
                    <mxGeometry width="50" height="50" relative="1" as="geometry">
                        <mxPoint x="800" y="250" as="sourcePoint"/>
                        <mxPoint x="845" y="266.25" as="targetPoint"/>
                        <Array as="points">
                            <mxPoint x="835" y="311"/>
                        </Array>
                    </mxGeometry>
                </mxCell>
                <mxCell id="27" value="" style="endArrow=classic;html=1;fillColor=#60a917;strokeColor=#000000;exitX=1;exitY=0.5;exitDx=0;exitDy=0;entryX=-0.015;entryY=0.633;entryDx=0;entryDy=0;entryPerimeter=0;" edge="1" parent="1" target="28">
                    <mxGeometry width="50" height="50" relative="1" as="geometry">
                        <mxPoint x="880" y="280.46" as="sourcePoint"/>
                        <mxPoint x="900" y="280" as="targetPoint"/>
                    </mxGeometry>
                </mxCell>
                <mxCell id="28" value="&lt;span style=&quot;text-align: left&quot;&gt;&lt;font color=&quot;#000000&quot; face=&quot;Garamond&quot; style=&quot;font-size: 13px&quot;&gt;z&lt;/font&gt;&lt;/span&gt;" style="text;html=1;strokeColor=none;fillColor=none;align=center;verticalAlign=middle;whiteSpace=wrap;rounded=0;" vertex="1" parent="1">
                    <mxGeometry x="900" y="272.5" width="10" height="12.5" as="geometry"/>
                </mxCell>
            </root>
        </mxGraphModel>
    </diagram>
</mxfile>